<?xml version="1.0" encoding="UTF-8" standalone="no"?>
<!DOCTYPE svg PUBLIC "-//W3C//DTD SVG 1.1//EN" "http://www.w3.org/Graphics/SVG/1.1/DTD/svg11.dtd">
<svg width="100%" height="100%" viewBox="0 0 281 370" version="1.1" xmlns="http://www.w3.org/2000/svg" xmlns:xlink="http://www.w3.org/1999/xlink" xml:space="preserve" xmlns:serif="http://www.serif.com/" style="fill-rule:evenodd;clip-rule:evenodd;stroke-linejoin:round;stroke-miterlimit:2;">
    <g transform="matrix(1,0,0,1,-487.064042,-415.840344)">
        <g transform="matrix(1.183617,0,0,1.155648,-118.679789,-72.327416)">
            <path d="M647.002,449.952C654.984,449.952 661.464,456.554 661.464,464.686C661.464,472.818 654.984,479.42 647.002,479.42C639.021,479.42 632.541,472.818 632.541,464.686C632.541,456.554 639.021,449.952 647.002,449.952ZM622.44,474.833C622.44,480.434 618.001,484.98 612.533,484.98L611.831,484.98C606.363,484.98 601.923,480.434 601.923,474.833C601.923,469.233 606.363,464.686 611.831,464.686L612.533,464.686C618.001,464.686 622.44,469.233 622.44,474.833ZM632.541,439.704C632.541,446.362 627.263,451.768 620.763,451.768L619.126,451.768C612.626,451.768 607.348,446.362 607.348,439.704C607.348,433.047 612.626,427.641 619.126,427.641L620.763,427.641C627.263,427.641 632.541,433.047 632.541,439.704ZM656.908,429.626C656.908,433.603 653.755,436.832 649.872,436.832L648.546,436.832C644.663,436.832 641.51,433.603 641.51,429.626C641.51,425.648 644.663,422.419 648.546,422.419L649.872,422.419C653.755,422.419 656.908,425.648 656.908,429.626Z" style="fill:rgb(40,15,145);"/>
        </g>
        <g transform="matrix(1.00565,0,0,1.468376,-4.040808,-306.739867)">
            <path d="M661.447,620.589C661.485,620.568 661.447,705.468 661.447,705.468C661.447,718.086 646.489,728.33 628.065,728.33C609.642,728.33 594.684,718.086 594.684,705.468C594.684,705.468 593.961,620.747 594.192,620.623C617.845,607.939 633.086,636.209 661.447,620.589Z" style="fill:rgb(181,200,228);"/>
        </g>
        <path d="M575.68,752.264C573.842,753.347 572.025,754.391 570.232,755.395C557.658,762.438 546.212,767.536 536.431,770.42C517.224,776.084 502.841,773.166 494.911,765.084C486.981,757.002 484.338,742.566 490.366,723.47C497.222,701.749 515.284,671.926 541.43,639.944C546.453,645.954 551.747,652.026 557.291,658.124L557.917,658.812C540.393,680.542 527.013,701.003 519.079,718.084C515.045,726.769 512.456,734.407 511.804,740.721C511.495,743.707 511.104,746.215 512.595,747.734C514.085,749.253 516.6,748.91 519.591,748.658C525.917,748.125 533.602,745.682 542.363,741.814C549.377,738.717 556.969,734.728 564.993,729.932C567.05,728.703 569.134,727.421 571.245,726.088L571.271,663.978C569.156,661.755 567.074,659.532 565.024,657.312C563.979,656.181 562.943,655.049 561.915,653.919C556.157,647.586 550.673,641.281 545.484,635.046C517.26,601.131 497.782,569.295 490.65,546.445C484.684,527.33 487.374,512.903 495.33,504.846C503.286,496.789 517.678,493.918 536.867,499.644C542.039,501.187 547.677,503.352 553.699,506.099C547.714,511.646 543.965,519.572 543.965,528.368L543.965,528.836C543.543,528.644 543.124,528.455 542.706,528.269C533.958,524.372 526.281,521.904 519.957,521.352C516.967,521.09 514.453,520.739 512.957,522.253C511.462,523.767 511.845,526.277 512.144,529.263C512.776,535.58 515.341,543.226 519.347,551.924C527.814,570.309 542.56,592.618 561.975,616.226C562.984,617.453 564.006,618.683 565.04,619.916C567.075,622.344 569.157,624.784 571.287,627.233L571.317,554.026C559.428,552.543 550.215,542.389 550.215,530.101L550.215,528.368C550.215,515.726 559.965,505.344 572.35,504.337C573.002,504.284 573.661,504.257 574.326,504.257L680.809,504.257C681.578,504.257 682.338,504.293 683.089,504.364C695.329,505.514 704.92,515.83 704.92,528.368L704.92,530.101C704.92,542.297 695.844,552.391 684.084,553.991L684.054,626.621C686.185,624.175 688.27,621.739 690.307,619.315C691.115,618.354 691.915,617.394 692.708,616.436C712.199,592.891 727.017,570.629 735.543,552.272C739.577,543.586 742.166,535.949 742.819,529.634C743.127,526.649 743.519,524.141 742.028,522.621C740.537,521.102 738.023,521.446 735.031,521.698C728.706,522.23 721.02,524.673 712.26,528.541C711.898,528.701 711.535,528.863 711.17,529.028L711.17,528.368C711.17,519.641 707.479,511.77 701.575,506.23C707.517,503.553 713.082,501.442 718.191,499.935C737.399,494.271 751.781,497.189 759.711,505.271C767.641,513.353 770.285,527.789 764.257,546.885C757.052,569.712 737.472,601.485 709.139,635.309C703.93,641.528 698.425,647.815 692.647,654.129C691.867,654.982 691.081,655.836 690.291,656.689C688.24,658.905 686.155,661.123 684.038,663.342L684.011,726.855C686.122,728.187 688.205,729.467 690.26,730.692C697.924,735.265 705.185,739.089 711.916,742.087C720.664,745.983 728.342,748.451 734.666,749.004C737.656,749.265 740.17,749.617 741.665,748.102C743.161,746.588 742.778,744.079 742.479,741.092C741.846,734.776 739.282,727.13 735.276,718.431C727.398,701.325 714.083,680.821 696.629,659.035L697.258,658.349C702.821,652.269 708.134,646.214 713.177,640.22C739.22,672.286 757.186,702.167 763.972,723.91C769.939,743.026 767.249,757.453 759.293,765.509C751.337,773.566 736.945,776.437 717.756,770.712C708.179,767.854 697.008,762.865 684.751,755.998C682.96,754.995 681.146,753.952 679.31,752.869C670.817,772.06 651.724,785.645 629.559,785.635L625.648,785.634C603.268,785.624 584.03,771.757 575.68,752.264ZM588.972,681.853L589.018,714.077C591.083,712.595 593.165,711.072 595.262,709.51C597.847,707.583 600.455,705.596 603.081,703.552C604.735,702.264 606.396,700.954 608.063,699.621C603.794,695.814 599.512,691.886 595.231,687.844C593.144,685.874 591.057,683.876 588.972,681.853ZM665.971,646.406L665.657,536.364L681.684,536.355C684.759,535.936 687.121,533.289 687.121,530.101L687.121,528.368C687.121,525.091 684.623,522.385 681.423,522.084C681.221,522.065 681.016,522.056 680.809,522.056L574.326,522.056C574.146,522.056 573.968,522.063 573.792,522.077C570.554,522.341 568.014,525.063 568.014,528.368L568.014,530.101C568.014,533.313 570.412,535.976 573.52,536.364L588.763,536.421L588.921,646.603C590.977,648.762 593.063,650.923 595.181,653.083C597.561,655.512 599.981,657.941 602.437,660.367C609.136,666.981 615.853,673.321 622.537,679.353C624.104,680.768 625.67,682.166 627.234,683.546C628.801,682.171 630.371,680.778 631.944,679.368C638.646,673.357 645.385,667.039 652.104,660.446C654.69,657.909 657.236,655.368 659.739,652.826C661.847,650.686 663.924,648.545 665.971,646.406ZM666.166,714.787L666.07,681.425C663.994,683.433 661.916,685.414 659.837,687.369C655.338,691.601 650.838,695.708 646.352,699.683C648.015,701.021 649.672,702.337 651.321,703.629C654.206,705.89 657.068,708.08 659.903,710.197C662.006,711.768 664.094,713.298 666.166,714.787ZM591.037,742.637C595.993,757.14 609.627,767.828 625.656,767.835L629.567,767.836C645.377,767.843 658.865,757.456 663.998,743.258C662.221,742.078 660.43,740.868 658.625,739.626C648.493,732.658 637.941,724.729 627.181,715.947C616.67,724.47 606.358,732.185 596.442,738.991C594.627,740.237 592.825,741.452 591.037,742.637Z" style="fill:rgb(40,15,145);"/>
    </g>
</svg>
